# xmcd
#
# Track frame offsets: 
#        150
#        19787
#        41302
#        63305
#        89005
#        112670
#        132937
#        152875
#        173702
#        199555
#        223435
#        245110
#        263450
#        282432
#        300507
#        325415
#
# Disc length: 4597 seconds
#
# Revision: 0
# Processed by: cddbd v1.5.2PL0 Copyright (c) Steve Scherf et al.
# Submitted via: ExactAudioCopy v0.99pb3
#
DISCID=e111f310
DTITLE=Various Artist - WOW Gospel 2004 Disc 2
DYEAR=2004
DGENRE=
TTITLE0=Fred Hammond - You Are My Daily Bread
TTITLE1=Vickie Winans - Shake Yourself Loose
TTITLE2=John P. Kee - I Won't Let Go
TTITLE3=Dorinda Clark-Cole - You Can't Hurry God
TTITLE4=Deitrick Haddon - Worship Medley: Joy of the Lord - Oh the Glor
TTITLE4=y
TTITLE5=Joann Rosario - When I Enter Your Rest
TTITLE6=Born Again Church Choir - Exalted Praise
TTITLE7=Lamar Campbell and Spirit Of Praise - There's Nothing Too Hard
TTITLE8=Ted and Sheri - Come Ye Disconsolate
TTITLE9=Harvey Watkins, Jr - It's in My Heart
TTITLE10=7 Sons Of Soul - He's Coming Back
TTITLE11=Keith ''Wonderboy'' Johnson - Afterwhile
TTITLE12=Shirley Caesar - Amazing Grace
TTITLE13=Beverly Crawford - Higher in the Lord
TTITLE14=Lee Williams and The Spiritual QC's - Right on Time
TTITLE15=RiZen - View the City
EXTD=
EXTT0=
EXTT1=
EXTT2=
EXTT3=
EXTT4=
EXTT5=
EXTT6=
EXTT7=
EXTT8=
EXTT9=
EXTT10=
EXTT11=
EXTT12=
EXTT13=
EXTT14=
EXTT15=
PLAYORDER=
